<svg width="800" height="133" viewBox="0 0 800 133" fill="none" xmlns="http://www.w3.org/2000/svg">
<g clip-path="url(#clip0_1_44)">
<path d="M272.799 36.0857C270.943 34.2842 268.705 32.8647 266.248 31.8821C263.791 30.8994 261.171 30.3535 258.441 30.3535H224.867V61.908H212.584C212.147 58.6325 211.328 55.4661 210.072 52.4635C208.162 48.0961 205.596 44.22 202.375 40.999C199.154 37.7781 195.278 35.1576 190.965 33.3015C182.285 29.5346 171.694 29.48 162.85 33.3015C158.482 35.2122 154.606 37.7781 151.385 40.999C148.164 44.22 145.544 48.0961 143.688 52.4635C141.777 56.8309 140.849 61.5805 140.849 66.4938C140.849 71.4071 141.832 76.2113 143.688 80.5787C145.598 84.9461 148.164 88.7676 151.385 92.0431C154.606 95.3187 158.482 97.8845 162.85 99.7407C167.217 101.597 171.967 102.525 176.88 102.525C181.793 102.525 186.597 101.597 190.965 99.7407C195.332 97.8845 199.154 95.2641 202.375 92.0431C205.596 88.7676 208.216 84.9461 210.072 80.5787C211.437 77.4669 212.311 74.1368 212.693 70.6974H224.867V102.58H232.182V71.2979C232.182 71.2979 232.291 70.9158 232.401 70.752L232.783 70.3153C232.783 70.3153 233.11 70.0969 233.329 70.0969H259.151C261.826 70.0969 264.447 69.551 266.849 68.5137C269.251 67.4765 271.38 66.057 273.181 64.3101C274.983 62.5631 276.402 60.434 277.44 58.0319C278.477 55.6299 279.023 53.0094 279.023 50.3344C279.023 47.6593 278.477 44.9297 277.33 42.5276C276.239 40.1256 274.71 37.9965 272.854 36.1949L272.799 36.0857ZM232.291 61.908C232.291 61.908 232.182 61.6896 232.182 61.5805V38.7062C232.182 38.3786 232.292 38.1056 232.455 37.8873C232.564 37.7781 232.783 37.6143 233.165 37.6143H259.151C260.843 37.6143 262.481 37.9419 264.01 38.597C265.538 39.2521 266.849 40.1802 267.995 41.3266C269.142 42.473 270.07 43.7833 270.725 45.3119C271.38 46.7859 271.707 48.4236 271.707 50.1706C271.707 51.9176 271.325 53.6099 270.616 55.1385C269.906 56.7217 268.923 58.0319 267.777 59.1784C266.576 60.2702 265.156 61.1983 263.573 61.8534C261.99 62.5085 260.297 62.8361 258.496 62.8361H233.329C233.329 62.8361 232.947 62.7269 232.783 62.6177L232.291 61.9626V61.908ZM203.357 77.6307C201.829 81.1246 199.754 84.1818 197.134 86.8022C194.513 89.4227 191.456 91.4972 187.962 92.9712C181.029 95.9192 172.513 95.9192 165.579 92.9712C162.085 91.4972 159.028 89.4227 156.408 86.8022C153.787 84.1818 151.713 81.1246 150.239 77.6307C148.765 74.1368 148.001 70.3699 148.001 66.4392C148.001 62.5085 148.765 58.7416 150.239 55.2477C151.713 51.8084 153.787 48.6966 156.408 46.1307C159.028 43.5103 162.085 41.4904 165.579 39.9618C169.073 38.4878 172.786 37.7235 176.771 37.7235C180.756 37.7235 184.468 38.4878 187.962 39.9618C191.456 41.4358 194.513 43.5103 197.134 46.1307C199.754 48.7512 201.829 51.8084 203.357 55.2477C204.886 58.687 205.65 62.4539 205.65 66.4392C205.65 70.4245 204.886 74.1913 203.357 77.6307Z" fill="white"/>
<path d="M289.559 102.47H340.33V95.1549H298.021C297.693 95.1549 297.421 95.0457 297.202 94.8274C296.984 94.609 296.875 94.336 296.875 94.0085V71.2433C296.875 70.9158 296.984 70.6428 297.202 70.4245C297.475 70.2061 297.693 70.0969 298.021 70.0969H340.33V62.7815H298.021C297.693 62.7815 297.421 62.6723 297.202 62.4539C296.984 62.2356 296.875 61.9626 296.875 61.5804V38.8699C296.875 38.5424 296.984 38.2694 297.257 37.9964C297.475 37.7235 297.748 37.6143 298.076 37.6143H340.385V30.4081L289.614 30.2989V102.47H289.559Z" fill="white"/>
<path d="M409.936 87.8395C409.936 88.44 409.499 88.6038 409.335 88.6584C409.172 88.6584 408.735 88.8222 408.353 88.3854L359.165 30.6264L358.837 30.2989H352.668V102.47H359.984V46.3491C359.984 45.5302 360.53 45.0389 361.021 44.8751C361.512 44.7113 362.277 44.7113 362.768 45.3664L410.973 102.525H417.088V30.3535H409.881V87.8941L409.936 87.8395Z" fill="white"/>
<path d="M513.498 34.6117C510.768 33.0831 507.657 32.0459 504.326 31.4453C497.83 30.2443 491.934 30.2443 485.437 31.4453C482.162 32.0459 479.105 33.0285 476.321 34.4479C473.536 35.9219 471.189 37.8873 469.387 40.3439C467.531 42.8552 466.603 46.0762 466.603 49.8976C466.603 53.7191 467.367 56.7217 468.896 59.1238C470.37 61.5259 472.335 63.4912 474.737 64.9652C477.085 66.4392 479.814 67.5856 482.872 68.3499C485.765 69.1142 488.877 69.7693 491.989 70.3153C495.046 70.8612 498.048 71.4071 500.996 71.8985C503.835 72.4444 506.401 73.1541 508.585 74.0276C510.714 74.901 512.461 76.1021 513.771 77.5215C515.027 78.9409 515.627 80.7425 515.627 83.1445C515.627 85.6558 514.917 87.6757 513.607 89.2043C512.188 90.7875 510.386 92.0431 508.312 92.9712C506.183 93.8993 503.835 94.5544 501.433 94.8819C498.976 95.2095 496.793 95.3733 494.937 95.3733C492.917 95.3733 490.569 95.2095 488.058 94.8819C485.547 94.5544 483.199 93.8993 481.015 92.9712C478.886 92.0977 477.085 90.7875 475.665 89.2043C474.301 87.6211 473.645 85.6558 473.645 83.1991V82.2165H466.603V83.1991C466.603 87.1298 467.531 90.4053 469.333 92.9712C471.134 95.4825 473.482 97.4478 476.266 98.8672C479.05 100.287 482.107 101.269 485.437 101.761C488.713 102.252 491.879 102.525 494.937 102.525C497.994 102.525 501.106 102.252 504.326 101.651C507.602 101.051 510.659 100.068 513.443 98.6488C516.228 97.1748 518.575 95.2095 520.377 92.7528C522.233 90.2416 523.161 87.0206 523.161 83.1991C523.161 79.7052 522.397 76.7572 520.868 74.5189C519.394 72.2806 517.374 70.479 514.972 69.1142C512.625 67.804 509.895 66.7667 506.892 66.057C503.944 65.3473 500.887 64.7468 497.83 64.2009C494.773 63.655 491.77 63.109 488.822 62.5631C485.983 62.0172 483.418 61.1983 481.234 60.2156C479.105 59.233 477.358 57.8682 476.048 56.285C474.792 54.7564 474.137 52.6273 474.137 50.0068C474.137 47.3864 474.792 45.4756 476.157 43.947C477.576 42.3639 479.378 41.1082 481.452 40.1801C483.581 39.2521 485.929 38.597 488.331 38.2694C490.788 37.9419 492.971 37.7781 494.827 37.7781C496.847 37.7781 499.14 37.9964 501.651 38.4332C504.163 38.8699 506.51 39.5796 508.694 40.6169C510.823 41.5996 512.625 42.9644 514.044 44.7113C515.409 46.3491 516.119 48.369 516.119 50.8803V51.863H523.161V50.8803C523.161 46.9496 522.233 43.6195 520.431 40.999C518.63 38.4332 516.337 36.3587 513.498 34.7755V34.6117Z" fill="white"/>
<path d="M593.968 40.999C590.747 37.7781 586.87 35.1576 582.558 33.3015C573.877 29.5346 563.286 29.48 554.442 33.3015C550.075 35.2122 546.199 37.7781 542.978 40.999C539.757 44.22 537.137 48.0961 535.28 52.4635C533.37 56.8309 532.442 61.5805 532.442 66.4938C532.442 71.4071 533.424 76.2113 535.28 80.5787C537.191 84.9461 539.757 88.7676 542.978 92.0431C546.199 95.3187 550.075 97.8845 554.442 99.7407C558.81 101.597 563.559 102.525 568.473 102.525C573.386 102.525 578.19 101.597 582.558 99.7407C586.925 97.8845 590.747 95.2641 593.968 92.0431C597.189 88.7676 599.809 84.9461 601.665 80.5787C603.576 76.2113 604.504 71.5163 604.504 66.4938C604.504 61.4713 603.521 56.8309 601.665 52.4635C599.754 48.0961 597.189 44.22 593.968 40.999ZM568.418 37.7235C572.349 37.7235 576.116 38.4878 579.61 39.9618C583.104 41.4358 586.161 43.5103 588.781 46.1307C591.402 48.7512 593.476 51.8084 595.005 55.2477C596.533 58.687 597.298 62.4539 597.298 66.4392C597.298 70.4245 596.533 74.1914 595.005 77.6307C593.476 81.1246 591.402 84.2364 588.781 86.8022C586.161 89.4227 583.104 91.4972 579.61 92.9712C572.676 95.9192 564.16 95.9192 557.227 92.9712C553.733 91.4972 550.676 89.4227 548.055 86.8022C545.435 84.1818 543.36 81.1246 541.886 77.6307C540.412 74.1368 539.648 70.3699 539.648 66.4392C539.648 62.5085 540.412 58.7416 541.886 55.2477C543.36 51.8084 545.435 48.6966 548.055 46.1307C550.676 43.5103 553.733 41.4904 557.227 39.9618C560.721 38.4878 564.488 37.7235 568.418 37.7235Z" fill="white"/>
<path d="M667.395 73.2087C667.395 76.2659 666.794 79.1593 665.648 81.7797C664.501 84.4548 662.918 86.8023 660.953 88.7676C658.987 90.7329 656.64 92.3161 653.965 93.4626C648.724 95.7009 642.227 95.7554 636.823 93.4626C634.148 92.3161 631.8 90.7329 629.78 88.7676C627.815 86.8023 626.232 84.4548 625.085 81.7797C623.939 79.1593 623.338 76.2659 623.338 73.2087V30.4627H616.023V73.2087C616.023 77.2485 616.787 81.07 618.316 84.6185C619.844 88.1671 621.919 91.2788 624.594 93.9539C627.214 96.5743 630.381 98.7034 633.929 100.232C637.478 101.761 641.299 102.525 645.339 102.525C649.379 102.525 653.201 101.761 656.749 100.232C660.298 98.7034 663.464 96.6289 666.084 93.9539C668.705 91.2788 670.834 88.1671 672.363 84.6185C673.891 81.07 674.655 77.2485 674.655 73.2087V30.4627H667.34V73.2087H667.395Z" fill="white"/>
<path d="M697.038 94.609C696.656 94.1722 696.438 93.5717 696.438 92.7528V30.3535H689.123V102.525H736.836V95.2095H698.785C698.021 95.2095 697.421 94.9911 697.038 94.609Z" fill="white"/>
<path d="M800 51.6446V50.6619C800 46.7313 799.072 43.4011 797.27 40.7807C795.469 38.2148 793.176 36.1403 790.337 34.5571C787.607 33.0285 784.496 31.9913 781.165 31.3907C774.669 30.1897 768.773 30.1897 762.276 31.3907C759.001 31.9913 755.944 32.9739 753.159 34.3933C750.375 35.8673 748.028 37.8327 746.226 40.2893C744.37 42.8006 743.442 46.0216 743.442 49.843C743.442 53.6645 744.206 56.6671 745.735 59.0692C747.209 61.4713 749.174 63.4366 751.576 64.9106C753.924 66.3846 756.653 67.531 759.711 68.2953C762.604 69.0596 765.716 69.7147 768.828 70.2607C771.885 70.8066 774.887 71.3525 777.835 71.8439C780.674 72.3898 783.24 73.0995 785.424 73.973C787.553 74.8465 789.3 76.0475 790.61 77.4669C791.866 78.8863 792.466 80.6879 792.466 83.0899C792.466 85.6012 791.756 87.6211 790.446 89.1497C789.027 90.7329 787.225 91.9885 785.151 92.9166C783.022 93.8447 780.674 94.4998 778.272 94.8273C775.815 95.1549 773.632 95.3187 771.775 95.3187C769.756 95.3187 767.408 95.1549 764.897 94.8273C762.386 94.4998 760.038 93.8447 757.854 92.9166C755.725 92.0431 753.924 90.7329 752.504 89.1497C751.139 87.5665 750.484 85.6012 750.484 83.1445V82.1619H743.442V83.1445C743.442 87.0752 744.37 90.3508 746.172 92.9166C747.973 95.4279 750.321 97.3932 753.105 98.8126C755.889 100.232 758.946 101.215 762.276 101.706C765.552 102.197 768.718 102.47 771.775 102.47C774.833 102.47 777.944 102.197 781.165 101.597C784.441 100.996 787.498 100.014 790.282 98.5942C793.067 97.1202 795.414 95.1549 797.216 92.6982C799.072 90.187 800 86.966 800 83.1445C800 79.6506 799.236 76.7026 797.707 74.4643C796.233 72.226 794.213 70.4244 791.811 69.0596C789.463 67.7494 786.734 66.7122 783.731 66.0024C780.783 65.2927 777.726 64.6922 774.669 64.1463C771.612 63.6004 768.609 63.0544 765.661 62.5085C762.822 61.9626 760.256 61.1437 758.073 60.161C755.944 59.1784 754.197 57.8136 752.886 56.2304C751.631 54.7018 750.976 52.5727 750.976 49.9522C750.976 47.3318 751.631 45.421 752.996 43.8924C754.415 42.3093 756.217 41.0536 758.291 40.1256C760.42 39.1975 762.768 38.5424 765.17 38.2148C767.626 37.8873 769.81 37.7235 771.666 37.7235C773.686 37.7235 775.979 37.9419 778.49 38.3786C781.002 38.8153 783.349 39.525 785.533 40.5623C787.662 41.545 789.463 42.9098 790.883 44.6567C792.248 46.2945 792.957 48.3144 792.957 50.8257V51.8084H800V51.6446Z" fill="white"/>
<path d="M105.091 100.56H56.6671V87.1298H104.927L82.1619 49.2971C90.1324 41.545 95.1549 30.7356 95.1549 18.7253H86.8568C86.8568 27.6785 83.3629 35.8127 77.7399 41.9271L52.5181 0L27.2963 41.9271C21.6733 35.8127 18.1793 27.6785 18.1793 18.7253H9.88126C9.88126 30.7356 14.8492 41.545 22.8743 49.2971L0.163778 87.1298H48.4236V100.56H0V108.858H48.4236V132.824H56.7217V108.858H105.145V100.56H105.091ZM71.4071 47.3864C66.0025 50.9349 59.5059 53.064 52.5727 53.064C45.6394 53.064 39.1429 50.9895 33.7382 47.3864L52.5727 16.0502L71.4071 47.3864ZM29.48 54.4834C36.1403 58.7962 44.0562 61.3621 52.5727 61.3621C61.0891 61.3621 69.0051 58.8508 75.6654 54.4834L90.2962 78.8863H14.7946L29.4254 54.4834H29.48Z" fill="white"/>
</g>
<defs>
<clipPath id="clip0_1_44">
<rect width="800" height="132.824" fill="white"/>
</clipPath>
</defs>
</svg>
