<svg width="300" height="380" viewBox="0 0 300 380" fill="none" xmlns="http://www.w3.org/2000/svg">
<g clip-path="url(#clip0_1_31)">
<path d="M300 287.065H161.766V248.727H299.532L234.545 140.727C257.299 118.597 271.636 87.7403 271.636 53.4545H247.948C247.948 79.013 237.974 102.234 221.922 119.688L149.922 0L77.9221 119.688C61.8701 102.234 51.8961 79.013 51.8961 53.4545H28.2078C28.2078 87.7403 42.3896 118.597 65.2987 140.727L0.467532 248.727H138.234V287.065H0V310.753H138.234V379.169H161.922V310.753H300.156V287.065H300ZM203.844 135.273C188.416 145.403 169.87 151.481 150.078 151.481C130.286 151.481 111.74 145.558 96.3117 135.273L150.078 45.8182L203.844 135.273ZM84.1558 155.532C103.169 167.844 125.766 175.169 150.078 175.169C174.39 175.169 196.987 168 216 155.532L257.766 225.195H42.2338L84 155.532H84.1558Z" fill="white"/>
</g>
<defs>
<clipPath id="clip0_1_31">
<rect width="300" height="379.169" fill="white"/>
</clipPath>
</defs>
</svg>
