<svg width="660" height="73" viewBox="0 0 660 73" fill="none" xmlns="http://www.w3.org/2000/svg">
<path d="M131.95 5.78679C130.094 3.98523 127.856 2.56583 125.399 1.58316C122.943 0.600493 120.322 0.0545654 117.592 0.0545654H84.018V31.6091H71.7347C71.2979 28.3335 70.4791 25.1672 69.2234 22.1646C67.3127 17.7972 64.7468 13.9211 61.5259 10.7001C58.3049 7.47916 54.4288 4.85871 50.116 3.00257C41.4358 -0.764324 30.8448 -0.818916 22.0008 3.00257C17.6334 4.91331 13.7573 7.47916 10.5364 10.7001C7.31541 13.9211 4.69497 17.7972 2.83882 22.1646C0.928077 26.532 0 31.2815 0 36.1949C0 41.1082 0.982669 45.9124 2.83882 50.2798C4.74956 54.6472 7.31541 58.4687 10.5364 61.7442C13.7573 65.0198 17.6334 67.5856 22.0008 69.4418C26.3682 71.2979 31.1178 72.226 36.0311 72.226C40.9445 72.226 45.7486 71.2979 50.116 69.4418C54.4834 67.5856 58.3049 64.9652 61.5259 61.7442C64.7468 58.4687 67.3673 54.6472 69.2234 50.2798C70.5882 47.168 71.4617 43.8378 71.8439 40.3985H84.018V72.2806H91.3334V40.999C91.3334 40.999 91.4426 40.6169 91.5518 40.4531L91.9339 40.0164C91.9339 40.0164 92.2615 39.798 92.4799 39.798H118.302C120.977 39.798 123.598 39.2521 126 38.2148C128.402 37.1775 130.531 35.7581 132.332 34.0112C134.134 32.2642 135.553 30.1351 136.591 27.733C137.628 25.3309 138.174 22.7105 138.174 20.0355C138.174 17.3604 137.628 14.6308 136.482 12.2287C135.39 9.82664 133.861 7.69753 132.005 5.89598L131.95 5.78679ZM91.4426 31.6091C91.4426 31.6091 91.3334 31.3907 91.3334 31.2815V8.40724C91.3334 8.07968 91.4426 7.80672 91.6064 7.58835C91.7156 7.47916 91.9339 7.31538 92.3161 7.31538H118.302C119.995 7.31538 121.632 7.64294 123.161 8.29805C124.69 8.95316 126 9.88124 127.146 11.0277C128.293 12.1741 129.221 13.4843 129.876 15.0129C130.531 16.4869 130.858 18.1247 130.858 19.8717C130.858 21.6186 130.476 23.311 129.767 24.8396C129.057 26.4228 128.074 27.733 126.928 28.8795C125.727 29.9713 124.307 30.8994 122.724 31.5545C121.141 32.2096 119.449 32.5372 117.647 32.5372H92.4799C92.4799 32.5372 92.0977 32.428 91.9339 32.3188L91.4426 31.6637V31.6091ZM62.5085 47.3318C60.9799 50.8257 58.9054 53.8829 56.285 56.5033C53.6645 59.1238 50.6074 61.1983 47.1134 62.6723C40.1802 65.6203 31.6637 65.6203 24.7305 62.6723C21.2365 61.1983 18.1793 59.1238 15.5589 56.5033C12.9384 53.8829 10.8639 50.8257 9.38993 47.3318C7.91593 43.8378 7.15164 40.0709 7.15164 36.1403C7.15164 32.2096 7.91593 28.4427 9.38993 24.9488C10.8639 21.5095 12.9384 18.3977 15.5589 15.8318C18.1793 13.2114 21.2365 11.1915 24.7305 9.66287C28.2244 8.18886 31.9367 7.42457 35.9219 7.42457C39.9072 7.42457 43.6195 8.18886 47.1134 9.66287C50.6074 11.1369 53.6645 13.2114 56.285 15.8318C58.9054 18.4523 60.9799 21.5095 62.5085 24.9488C64.0371 28.3881 64.8014 32.155 64.8014 36.1403C64.8014 40.1255 64.0371 43.8924 62.5085 47.3318Z" fill="white"/>
<path d="M148.71 72.1714H199.481V64.856H157.172C156.845 64.856 156.572 64.7468 156.353 64.5285C156.135 64.3101 156.026 64.0371 156.026 63.7096V40.9445C156.026 40.6169 156.135 40.3439 156.353 40.1256C156.626 39.9072 156.845 39.798 157.172 39.798H199.481V32.4826H157.172C156.845 32.4826 156.572 32.3734 156.353 32.155C156.135 31.9367 156.026 31.6637 156.026 31.2816V8.57104C156.026 8.24348 156.135 7.97052 156.408 7.69756C156.626 7.42459 156.899 7.31541 157.227 7.31541H199.536V0.109185L148.765 0V72.1714H148.71Z" fill="white"/>
<path d="M269.087 57.5406C269.087 58.1411 268.65 58.3049 268.486 58.3595C268.323 58.3595 267.886 58.5233 267.504 58.0865L218.316 0.327555L217.988 0H211.819V72.1714H219.135V16.0502C219.135 15.2313 219.681 14.74 220.172 14.5762C220.663 14.4124 221.428 14.4124 221.919 15.0676L270.124 72.226H276.239V0.0545913H269.032V57.5952L269.087 57.5406Z" fill="white"/>
<path d="M372.649 4.31282C369.92 2.78422 366.808 1.74696 363.478 1.14644C356.981 -0.0545929 351.085 -0.0545929 344.589 1.14644C341.313 1.74696 338.256 2.72963 335.472 4.14904C332.687 5.62304 330.34 7.58837 328.538 10.045C326.682 12.5563 325.754 15.7773 325.754 19.5987C325.754 23.4202 326.518 26.4228 328.047 28.8249C329.521 31.227 331.486 33.1923 333.888 34.6663C336.236 36.1403 338.966 37.2867 342.023 38.051C344.916 38.8153 348.028 39.4705 351.14 40.0164C354.197 40.5623 357.199 41.1082 360.147 41.5996C362.986 42.1455 365.552 42.8552 367.736 43.7287C369.865 44.6022 371.612 45.8032 372.922 47.2226C374.178 48.642 374.778 50.4436 374.778 52.8456C374.778 55.3569 374.069 57.3768 372.758 58.9054C371.339 60.4886 369.537 61.7442 367.463 62.6723C365.334 63.6004 362.986 64.2555 360.584 64.583C358.128 64.9106 355.944 65.0744 354.088 65.0744C352.068 65.0744 349.72 64.9106 347.209 64.583C344.698 64.2555 342.35 63.6004 340.167 62.6723C338.037 61.7988 336.236 60.4886 334.817 58.9054C333.452 57.3222 332.797 55.3569 332.797 52.9002V51.9176H325.754V52.9002C325.754 56.8309 326.682 60.1065 328.484 62.6723C330.285 65.1836 332.633 67.1489 335.417 68.5683C338.201 69.9877 341.258 70.9704 344.589 71.4617C347.864 71.953 351.031 72.226 354.088 72.226C357.145 72.226 360.257 71.9531 363.478 71.3525C366.753 70.752 369.81 69.7693 372.595 68.3499C375.379 66.8759 377.726 64.9106 379.528 62.4539C381.384 59.9427 382.312 56.7217 382.312 52.9002C382.312 49.4063 381.548 46.4583 380.019 44.22C378.545 41.9817 376.525 40.1802 374.123 38.8153C371.776 37.5051 369.046 36.4679 366.043 35.7582C363.095 35.0485 360.038 34.4479 356.981 33.902C353.924 33.3561 350.921 32.8102 347.973 32.2642C345.135 31.7183 342.569 30.8994 340.385 29.9167C338.256 28.9341 336.509 27.5693 335.199 25.9861C333.943 24.4575 333.288 22.3284 333.288 19.7079C333.288 17.0875 333.943 15.1767 335.308 13.6482C336.727 12.065 338.529 10.8093 340.603 9.88126C342.732 8.95319 345.08 8.29808 347.482 7.97052C349.939 7.64296 352.122 7.47919 353.979 7.47919C355.998 7.47919 358.291 7.69756 360.803 8.1343C363.314 8.57104 365.661 9.28074 367.845 10.318C369.974 11.3007 371.776 12.6655 373.195 14.4124C374.56 16.0502 375.27 18.0701 375.27 20.5814V21.5641H382.312V20.5814C382.312 16.6507 381.384 13.3206 379.582 10.7002C377.781 8.1343 375.488 6.05978 372.649 4.47659V4.31282Z" fill="white"/>
<path d="M453.119 10.7002C449.898 7.47919 446.022 4.85875 441.709 3.0026C433.029 -0.764292 422.438 -0.818885 413.594 3.0026C409.226 4.91334 405.35 7.47919 402.129 10.7002C398.908 13.9211 396.288 17.7972 394.432 22.1646C392.521 26.532 391.593 31.2816 391.593 36.1949C391.593 41.1082 392.575 45.9124 394.432 50.2798C396.342 54.6472 398.908 58.4687 402.129 61.7442C405.35 65.0198 409.226 67.5857 413.594 69.4418C417.961 71.298 422.711 72.226 427.624 72.226C432.537 72.226 437.341 71.298 441.709 69.4418C446.076 67.5857 449.898 64.9652 453.119 61.7442C456.34 58.4687 458.96 54.6472 460.816 50.2798C462.727 45.9124 463.655 41.2174 463.655 36.1949C463.655 31.1724 462.672 26.532 460.816 22.1646C458.905 17.7972 456.34 13.9211 453.119 10.7002ZM427.569 7.4246C431.5 7.4246 435.267 8.1889 438.761 9.6629C442.255 11.1369 445.312 13.2114 447.932 15.8319C450.553 18.4523 452.627 21.5095 454.156 24.9488C455.684 28.3882 456.449 32.1551 456.449 36.1403C456.449 40.1256 455.684 43.8925 454.156 47.3318C452.627 50.8257 450.553 53.9375 447.932 56.5033C445.312 59.1238 442.255 61.1983 438.761 62.6723C431.828 65.6203 423.311 65.6203 416.378 62.6723C412.884 61.1983 409.827 59.1238 407.206 56.5033C404.586 53.8829 402.511 50.8257 401.037 47.3318C399.563 43.8379 398.799 40.071 398.799 36.1403C398.799 32.2096 399.563 28.4428 401.037 24.9488C402.511 21.5095 404.586 18.3977 407.206 15.8319C409.827 13.2114 412.884 11.1915 416.378 9.6629C419.872 8.1889 423.639 7.4246 427.569 7.4246Z" fill="white"/>
<path d="M526.546 42.9098C526.546 45.967 525.945 48.8604 524.799 51.4809C523.652 54.1559 522.069 56.5034 520.104 58.4687C518.138 60.4341 515.791 62.0172 513.116 63.1637C507.875 65.402 501.379 65.4566 495.974 63.1637C493.299 62.0172 490.951 60.4341 488.931 58.4687C486.966 56.5034 485.383 54.1559 484.236 51.4809C483.09 48.8604 482.49 45.967 482.49 42.9098V0.163818H475.174V42.9098C475.174 46.9497 475.938 50.7712 477.467 54.3197C478.996 57.8682 481.07 60.98 483.745 63.655C486.366 66.2755 489.532 68.4046 493.08 69.9332C496.629 71.4618 500.45 72.2261 504.49 72.2261C508.53 72.2261 512.352 71.4618 515.9 69.9332C519.449 68.4046 522.615 66.3301 525.236 63.655C527.856 60.98 529.985 57.8682 531.514 54.3197C533.042 50.7712 533.807 46.9497 533.807 42.9098V0.163818H526.491V42.9098H526.546Z" fill="white"/>
<path d="M556.19 64.3101C555.807 63.8733 555.589 63.2728 555.589 62.4539V0.0545654H548.274V72.226H595.988V64.9106H557.937C557.172 64.9106 556.572 64.6922 556.19 64.3101Z" fill="white"/>
<path d="M659.151 21.3457V20.363C659.151 16.4323 658.223 13.1022 656.421 10.4817C654.62 7.91589 652.327 5.84137 649.488 4.25819C646.758 2.7296 643.647 1.69234 640.317 1.09182C633.82 -0.109219 627.924 -0.109219 621.428 1.09182C618.152 1.69234 615.095 2.675 612.311 4.09441C609.526 5.56841 607.179 7.53375 605.377 9.99041C603.521 12.5017 602.593 15.7226 602.593 19.5441C602.593 23.3656 603.357 26.3682 604.886 28.7703C606.36 31.1723 608.325 33.1377 610.727 34.6117C613.075 36.0857 615.804 37.2321 618.862 37.9964C621.755 38.7607 624.867 39.4158 627.979 39.9618C631.036 40.5077 634.038 41.0536 636.986 41.5449C639.825 42.0909 642.391 42.8006 644.575 43.6741C646.704 44.5475 648.451 45.7486 649.761 47.168C651.017 48.5874 651.617 50.3889 651.617 52.791C651.617 55.3023 650.907 57.3222 649.597 58.8508C648.178 60.434 646.376 61.6896 644.302 62.6177C642.173 63.5458 639.825 64.2009 637.423 64.5284C634.966 64.856 632.783 65.0198 630.927 65.0198C628.907 65.0198 626.559 64.856 624.048 64.5284C621.537 64.2009 619.189 63.5458 617.006 62.6177C614.876 61.7442 613.075 60.434 611.655 58.8508C610.291 57.2676 609.636 55.3023 609.636 52.8456V51.8629H602.593V52.8456C602.593 56.7763 603.521 60.0518 605.323 62.6177C607.124 65.1289 609.472 67.0943 612.256 68.5137C615.04 69.9331 618.097 70.9158 621.428 71.4071C624.703 71.8984 627.869 72.1714 630.927 72.1714C633.984 72.1714 637.096 71.8984 640.317 71.2979C643.592 70.6974 646.649 69.7147 649.433 68.2953C652.218 66.8213 654.565 64.856 656.367 62.3993C658.223 59.8881 659.151 56.6671 659.151 52.8456C659.151 49.3517 658.387 46.4037 656.858 44.1654C655.384 41.9271 653.364 40.1255 650.962 38.7607C648.615 37.4505 645.885 36.4132 642.882 35.7035C639.934 34.9938 636.877 34.3933 633.82 33.8474C630.763 33.3015 627.76 32.7555 624.812 32.2096C621.973 31.6637 619.408 30.8448 617.224 29.8621C615.095 28.8795 613.348 27.5146 612.038 25.9315C610.782 24.4029 610.127 22.2737 610.127 19.6533C610.127 17.0329 610.782 15.1221 612.147 13.5935C613.566 12.0103 615.368 10.7547 617.442 9.82663C619.571 8.89856 621.919 8.24345 624.321 7.91589C626.778 7.58834 628.961 7.42456 630.817 7.42456C632.837 7.42456 635.13 7.64293 637.642 8.07967C640.153 8.51641 642.5 9.22611 644.684 10.2634C646.813 11.246 648.615 12.6109 650.034 14.3578C651.399 15.9956 652.109 18.0155 652.109 20.5268V21.5095H659.151V21.3457Z" fill="white"/>
</svg>
